<svg xmlns="http://www.w3.org/2000/svg" version="1.1" xmlns:xlink="http://www.w3.org/1999/xlink" xmlns:svgjs="http://svgjs.dev/svgjs" width="128" height="128" viewBox="0 0 128 128"><g transform="matrix(0.8046875,0,0,0.8046875,12.41184074821259,12.814873242367177)"><svg viewBox="0 0 98 98" data-background-color="#ffffff" preserveAspectRatio="xMidYMid meet" height="127" width="128" xmlns="http://www.w3.org/2000/svg" xmlns:xlink="http://www.w3.org/1999/xlink"><g id="tight-bounds" transform="matrix(1,0,0,1,0.08387967645792571,0.08387967645792571)"><svg viewBox="0 0 97.83224064708415 97.83224064708415" height="97.83224064708415" width="97.83224064708415"><g><svg></svg></g><g><svg viewBox="0 0 97.83224064708415 97.83224064708415" height="97.83224064708415" width="97.83224064708415"><g><path d="M0 48.916c0-27.016 21.9-48.916 48.916-48.916 27.016 0 48.916 21.9 48.916 48.916 0 27.016-21.9 48.916-48.916 48.916-27.016 0-48.916-21.9-48.916-48.916zM48.916 93.244c24.481 0 44.328-19.846 44.328-44.328 0-24.481-19.846-44.328-44.328-44.327-24.481 0-44.328 19.846-44.327 44.327 0 24.481 19.846 44.328 44.327 44.328z" data-fill-palette-color="tertiary" fill="#ff2e63" stroke="transparent"></path><ellipse rx="46.95947551060039" ry="46.95947551060039" cx="48.916120323542074" cy="48.916120323542074" fill="#ff2e63" stroke="transparent" stroke-width="0" fill-opacity="1" data-fill-palette-color="tertiary"></ellipse></g><g transform="matrix(1,0,0,1,24.335486028634346,23.47539391502934)"><svg viewBox="0 0 49.16126858981546 50.88145281702547" height="50.88145281702547" width="49.16126858981546"><g><svg viewBox="0 0 49.16126858981546 50.88145281702547" height="50.88145281702547" width="49.16126858981546"><g><svg viewBox="0 0 49.16126858981546 50.88145281702547" height="50.88145281702547" width="49.16126858981546"><g id="textblocktransform"><svg viewBox="0 0 49.16126858981546 50.88145281702547" height="50.88145281702547" width="49.16126858981546" id="textblock"><g><svg viewBox="0 0 49.16126858981546 50.88145281702547" height="50.88145281702547" width="49.16126858981546"><g><svg viewBox="0 0 49.16126858981546 50.88145281702547" height="50.88145281702547" width="49.16126858981546"><g><svg xmlns="http://www.w3.org/2000/svg" xmlns:xlink="http://www.w3.org/1999/xlink" version="1.0" x="0" y="0" viewBox="1.165 -0.03300000000000025 96.683 100.066" enable-background="new 0 0 100 100" xml:space="preserve" width="49.16126858981546" height="50.88145281702547" class="icon-icon-0" data-fill-palette-color="quaternary" id="icon-0"><path enable-background="new    " d="M1.266 44.426v0.114 0.356 21.37V89.47c0 5.812 4.792 10.563 10.653 10.563h8.305 15.453V78.286c0-5.68 2.906-8.585 8.717-8.585h10.301c5.678 0 8.585 2.905 8.585 8.585v21.746h15.608 8.307c5.859 0 10.653-4.753 10.653-10.563V66.264 44.896 44.54v-0.114c0-3.681 0-2.824 0-2.824V35.62c0-3.895-1.655-7.208-4.965-9.934L58.077 2.304c-3.929-3.116-13.114-3.116-17.043 0L6.23 25.686c-3.308 2.725-4.964 6.039-4.964 9.934l-0.101 7.164" fill="#f9f9f9" data-fill-palette-color="quaternary"></path></svg></g></svg></g></svg></g></svg></g></svg></g><g></g></svg></g></svg></g></svg></g><defs></defs></svg><rect width="97.83224064708415" height="97.83224064708415" fill="none" stroke="none" visibility="hidden"></rect></g></svg></g></svg>