<svg xmlns="http://www.w3.org/2000/svg" version="1.1" xmlns:xlink="http://www.w3.org/1999/xlink" xmlns:svgjs="http://svgjs.dev/svgjs" width="2000" height="1247" viewBox="0 0 2000 1247"><g transform="matrix(1,0,0,1,-1.2121212121212466,0.504858299595071)"><svg viewBox="0 0 396 247" data-background-color="#ffffff" preserveAspectRatio="xMidYMid meet" height="1247" width="2000" xmlns="http://www.w3.org/2000/svg" xmlns:xlink="http://www.w3.org/1999/xlink"><g id="tight-bounds" transform="matrix(1,0,0,1,0.2400000000000091,-0.09999999999999432)"><svg viewBox="0 0 395.52 247.2" height="247.2" width="395.52"><g><svg></svg></g><g><svg viewBox="0 0 395.52 247.2" height="247.2" width="395.52"><g transform="matrix(1,0,0,1,111.40124643849482,47.215199999999996)"><svg viewBox="0 0 172.71750712301034 152.7696" height="152.7696" width="172.71750712301034"><g><svg viewBox="0 0 244.43135999999998 216.20090352543735" height="152.7696" width="172.71750712301034"><g transform="matrix(1,0,0,1,0,127.3587186599436)"><svg viewBox="0 0 244.43135999999998 88.84218486549375" height="88.84218486549375" width="244.43135999999998"><g id="textblocktransform"><svg viewBox="0 0 244.43135999999998 88.84218486549375" height="88.84218486549375" width="244.43135999999998" id="textblock"><g><svg viewBox="0 0 244.43135999999998 53.56833748732394" height="53.56833748732394" width="244.43135999999998"><g transform="matrix(1,0,0,1,0,0)"><svg width="244.43135999999998" viewBox="1.07 -37.5 173.33 37.99" height="53.56833748732394" data-palette-color="#252a34"><path d="M21.78-35.55L25.95-13.21 29.32-35.55 36.43-35.55 30.1 0 22.9 0 18.75-20.95 14.65 0 7.42 0 1.07-35.55 8.23-35.55 11.57-13.23 15.75-35.55 21.78-35.55ZM49.88 0.49L49.88 0.49Q44.55 0.49 41.57-2.69 38.6-5.86 38.6-11.77L38.6-11.77 38.6-13.87Q38.6-20.12 41.33-23.51 44.06-26.9 49.17-26.9L49.17-26.9Q54.15-26.9 56.66-23.72 59.18-20.53 59.23-14.28L59.23-14.28 59.23-10.89 45.48-10.89Q45.63-7.96 46.77-6.6 47.92-5.25 50.31-5.25L50.31-5.25Q53.78-5.25 56.1-7.62L56.1-7.62 58.81-3.44Q57.54-1.68 55.12-0.6 52.71 0.49 49.88 0.49ZM45.53-15.72L45.53-15.72 52.44-15.72 52.44-16.36Q52.39-18.73 51.66-19.95 50.93-21.17 49.12-21.17 47.31-21.17 46.49-19.87 45.68-18.58 45.53-15.72ZM78.49-9.33L78.49-9.33Q78.49-11.5 77.38-12.61 76.26-13.72 73.33-14.92L73.33-14.92Q67.99-16.94 65.64-19.67 63.3-22.39 63.3-26.1L63.3-26.1Q63.3-30.59 66.49-33.31 69.67-36.04 74.58-36.04L74.58-36.04Q77.85-36.04 80.41-34.66 82.98-33.28 84.36-30.76 85.74-28.25 85.74-25.05L85.74-25.05 78.58-25.05Q78.58-27.54 77.52-28.85 76.46-30.15 74.46-30.15L74.46-30.15Q72.58-30.15 71.53-29.04 70.48-27.93 70.48-26.05L70.48-26.05Q70.48-24.58 71.65-23.4 72.82-22.22 75.8-20.95L75.8-20.95Q81-19.07 83.36-16.33 85.71-13.6 85.71-9.38L85.71-9.38Q85.71-4.74 82.76-2.12 79.8 0.49 74.73 0.49L74.73 0.49Q71.28 0.49 68.45-0.93 65.62-2.34 64.02-4.98 62.42-7.62 62.42-11.21L62.42-11.21 69.62-11.21Q69.62-8.13 70.82-6.74 72.02-5.35 74.73-5.35L74.73-5.35Q78.49-5.35 78.49-9.33ZM96.87-37.5L96.87-24.1Q99.11-26.9 102.39-26.9L102.39-26.9Q106-26.9 107.88-24.37 109.76-21.83 109.78-16.8L109.78-16.8 109.78 0 102.85 0 102.85-16.72Q102.85-19.04 102.13-20.08 101.41-21.12 99.8-21.12L99.8-21.12Q97.92-21.12 96.87-19.38L96.87-19.38 96.87 0 89.96 0 89.96-37.5 96.87-37.5ZM134.24 0L127.28 0Q126.99-0.61 126.7-2.05L126.7-2.05Q124.84 0.49 121.67 0.49L121.67 0.49Q118.35 0.49 116.16-1.71 113.98-3.91 113.98-7.4L113.98-7.4Q113.98-11.55 116.63-13.82 119.28-16.09 124.26-16.14L124.26-16.14 126.36-16.14 126.36-18.26Q126.36-20.04 125.75-20.78 125.14-21.51 123.96-21.51L123.96-21.51Q121.38-21.51 121.38-18.48L121.38-18.48 114.47-18.48Q114.47-22.14 117.21-24.52 119.96-26.9 124.16-26.9L124.16-26.9Q128.51-26.9 130.89-24.65 133.27-22.39 133.27-18.19L133.27-18.19 133.27-5.76Q133.32-2.34 134.24-0.42L134.24-0.42 134.24 0ZM123.21-4.93L123.21-4.93Q124.36-4.93 125.16-5.4 125.97-5.86 126.36-6.49L126.36-6.49 126.36-11.99 124.7-11.99Q122.94-11.99 121.93-10.86 120.91-9.74 120.91-7.86L120.91-7.86Q120.91-4.93 123.21-4.93ZM151.38-26.59L151.31-19.75 149.01-19.95Q146.18-19.95 145.18-17.46L145.18-17.46 145.18 0 138.24 0 138.24-26.42 144.76-26.42 144.96-23.56Q146.59-26.9 149.47-26.9L149.47-26.9Q150.65-26.9 151.38-26.59L151.38-26.59ZM165.05 0.49L165.05 0.49Q159.73 0.49 156.75-2.69 153.77-5.86 153.77-11.77L153.77-11.77 153.77-13.87Q153.77-20.12 156.5-23.51 159.24-26.9 164.34-26.9L164.34-26.9Q169.32-26.9 171.84-23.72 174.35-20.53 174.4-14.28L174.4-14.28 174.4-10.89 160.65-10.89Q160.8-7.96 161.95-6.6 163.1-5.25 165.49-5.25L165.49-5.25Q168.95-5.25 171.27-7.62L171.27-7.62 173.98-3.44Q172.71-1.68 170.3-0.6 167.88 0.49 165.05 0.49ZM160.7-15.72L160.7-15.72 167.61-15.72 167.61-16.36Q167.56-18.73 166.83-19.95 166.1-21.17 164.29-21.17 162.49-21.17 161.67-19.87 160.85-18.58 160.7-15.72Z" opacity="1" transform="matrix(1,0,0,1,0,0)" fill="#252a34" class="wordmark-text-0" data-fill-palette-color="primary" id="text-0"></path></svg></g></svg></g><g transform="matrix(1,0,0,1,0,66.21453632798142)"><svg viewBox="0 0 244.43135999999998 22.627648537512314" height="22.627648537512314" width="244.43135999999998"><g transform="matrix(1,0,0,1,0,0)"><svg width="244.43135999999998" viewBox="3.83 -37.5 520.27 48.17" height="22.627648537512314" data-palette-color="#ff2e63"><path d="M20.87-20.26L20.87-16.43 8.3-16.43 8.3-3.83 22.95-3.83 22.95 0 3.83 0 3.83-35.55 22.71-35.55 22.71-31.69 8.3-31.69 8.3-20.26 20.87-20.26ZM29.71-26.42L34.91-6.57 39.91-26.42 44.31-26.42 36.47 0 33.25 0 25.31-26.42 29.71-26.42ZM57.93 0.49L57.93 0.49Q53 0.49 50.36-2.45 47.72-5.4 47.68-11.08L47.68-11.08 47.68-14.28Q47.68-20.19 50.25-23.55 52.83-26.9 57.44-26.9L57.44-26.9Q62.08-26.9 64.37-23.95 66.67-21 66.72-14.75L66.72-14.75 66.72-11.91 51.97-11.91 51.97-11.3Q51.97-7.06 53.57-5.13 55.17-3.2 58.17-3.2L58.17-3.2Q60.08-3.2 61.53-3.92 62.98-4.64 64.25-6.2L64.25-6.2 66.5-3.47Q63.69 0.49 57.93 0.49ZM57.44-23.19L57.44-23.19Q54.76-23.19 53.46-21.35 52.17-19.51 52-15.63L52-15.63 62.4-15.63 62.4-16.21Q62.23-19.97 61.04-21.58 59.86-23.19 57.44-23.19ZM82.78-26.56L82.81-22.36Q81.9-22.53 80.85-22.53L80.85-22.53Q77.53-22.53 76.21-18.9L76.21-18.9 76.21 0 71.89 0 71.89-26.42 76.09-26.42 76.16-23.73Q77.9-26.9 81.07-26.9L81.07-26.9Q82.1-26.9 82.78-26.56L82.78-26.56ZM89.88-26.42L94.77-7.18 99.57-26.42 104.16-26.42 95.52 3.74Q94.55 7.13 92.76 8.9 90.98 10.67 88.71 10.67L88.71 10.67Q87.83 10.67 86.46 10.28L86.46 10.28 86.46 6.62 87.42 6.71Q89.3 6.71 90.36 5.82 91.42 4.93 92.08 2.73L92.08 2.73 92.93-0.22 85.17-26.42 89.88-26.42ZM107.09-11.55L107.09-14.43Q107.09-20.19 109.89-23.55 112.68-26.9 117.27-26.9 121.86-26.9 124.66-23.63 127.45-20.36 127.53-14.72L127.53-14.72 127.53-11.94Q127.53-6.2 124.74-2.86 121.96 0.49 117.32 0.49L117.32 0.49Q112.73 0.49 109.96-2.76 107.19-6.01 107.09-11.55L107.09-11.55ZM111.41-14.45L111.41-11.94Q111.41-7.86 113.01-5.53 114.61-3.2 117.32-3.2L117.32-3.2Q123.03-3.2 123.21-11.45L123.21-11.45 123.21-14.43Q123.21-18.48 121.59-20.84 119.98-23.19 117.27-23.19L117.27-23.19Q114.61-23.19 113.01-20.84 111.41-18.48 111.41-14.45L111.41-14.45ZM133.09-26.42L137.17-26.42 137.29-23.56Q139.8-26.9 143.71-26.9L143.71-26.9Q150.72-26.9 150.82-17.55L150.82-17.55 150.82 0 146.52 0 146.52-17.36Q146.52-20.46 145.48-21.77 144.44-23.07 142.37-23.07L142.37-23.07Q140.76-23.07 139.47-22 138.19-20.92 137.41-19.19L137.41-19.19 137.41 0 133.09 0 133.09-26.42ZM166.73 0.49L166.73 0.49Q161.8 0.49 159.16-2.45 156.53-5.4 156.48-11.08L156.48-11.08 156.48-14.28Q156.48-20.19 159.05-23.55 161.63-26.9 166.24-26.9L166.24-26.9Q170.88-26.9 173.18-23.95 175.47-21 175.52-14.75L175.52-14.75 175.52-11.91 160.77-11.91 160.77-11.3Q160.77-7.06 162.37-5.13 163.97-3.2 166.97-3.2L166.97-3.2Q168.88-3.2 170.33-3.92 171.78-4.64 173.05-6.2L173.05-6.2 175.3-3.47Q172.49 0.49 166.73 0.49ZM166.24-23.19L166.24-23.19Q163.56-23.19 162.26-21.35 160.97-19.51 160.8-15.63L160.8-15.63 171.2-15.63 171.2-16.21Q171.03-19.97 169.84-21.58 168.66-23.19 166.24-23.19ZM201.32-3.2L201.32-3.2Q203.47-3.2 204.76-4.53 206.06-5.86 206.18-8.33L206.18-8.33 210.26-8.33Q210.11-4.52 207.56-2.01 205.01 0.49 201.32 0.49L201.32 0.49Q196.41 0.49 193.84-2.6 191.26-5.69 191.26-11.79L191.26-11.79 191.26-14.7Q191.26-20.68 193.83-23.79 196.39-26.9 201.3-26.9L201.3-26.9Q205.35-26.9 207.73-24.34 210.11-21.78 210.26-17.33L210.26-17.33 206.18-17.33Q206.03-20.26 204.77-21.73 203.52-23.19 201.3-23.19L201.3-23.19Q198.42-23.19 197.02-21.3 195.63-19.41 195.58-15.09L195.58-15.09 195.58-11.72Q195.58-7.06 196.96-5.13 198.34-3.2 201.32-3.2ZM233.32 0L228.83 0Q228.44-0.85 228.27-2.88L228.27-2.88Q225.98 0.49 222.41 0.49L222.41 0.49Q218.82 0.49 216.81-1.53 214.79-3.54 214.79-7.2L214.79-7.2Q214.79-11.23 217.53-13.6 220.26-15.97 225.02-16.02L225.02-16.02 228.2-16.02 228.2-18.82Q228.2-21.19 227.15-22.19 226.1-23.19 223.95-23.19L223.95-23.19Q222-23.19 220.78-22.03 219.56-20.87 219.56-19.09L219.56-19.09 215.23-19.09Q215.23-21.12 216.43-22.96 217.63-24.8 219.65-25.85 221.68-26.9 224.17-26.9L224.17-26.9Q228.22-26.9 230.33-24.89 232.45-22.88 232.49-19.02L232.49-19.02 232.49-5.69Q232.52-2.64 233.32-0.39L233.32-0.39 233.32 0ZM223.07-3.44L223.07-3.44Q224.66-3.44 226.1-4.32 227.54-5.2 228.2-6.52L228.2-6.52 228.2-12.82 225.76-12.82Q222.68-12.77 220.9-11.44 219.12-10.11 219.12-7.71L219.12-7.71Q219.12-5.47 220.02-4.46 220.92-3.44 223.07-3.44ZM239.18-26.42L243.26-26.42 243.38-23.56Q245.9-26.9 249.8-26.9L249.8-26.9Q256.81-26.9 256.91-17.55L256.91-17.55 256.91 0 252.61 0 252.61-17.36Q252.61-20.46 251.57-21.77 250.53-23.07 248.46-23.07L248.46-23.07Q246.85-23.07 245.57-22 244.28-20.92 243.5-19.19L243.5-19.19 243.5 0 239.18 0 239.18-26.42ZM279.48-37.5L279.48 0 275.16 0 275.16-37.5 279.48-37.5ZM290.93-26.42L290.93 0 286.61 0 286.61-26.42 290.93-26.42ZM291.27-33.42L291.27-33.42Q291.27-32.32 290.66-31.59 290.05-30.86 288.81-30.86L288.81-30.86Q287.59-30.86 286.98-31.59 286.37-32.32 286.37-33.42 286.37-34.52 286.98-35.28 287.59-36.04 288.81-36.04 290.03-36.04 290.65-35.27 291.27-34.5 291.27-33.42ZM300.01-26.42L305.21-6.57 310.22-26.42 314.61-26.42 306.77 0 303.55 0 295.62-26.42 300.01-26.42ZM328.23 0.49L328.23 0.49Q323.3 0.49 320.66-2.45 318.03-5.4 317.98-11.08L317.98-11.08 317.98-14.28Q317.98-20.19 320.55-23.55 323.13-26.9 327.74-26.9L327.74-26.9Q332.38-26.9 334.68-23.95 336.97-21 337.02-14.75L337.02-14.75 337.02-11.91 322.27-11.91 322.27-11.3Q322.27-7.06 323.87-5.13 325.47-3.2 328.48-3.2L328.48-3.2Q330.38-3.2 331.83-3.92 333.29-4.64 334.55-6.2L334.55-6.2 336.8-3.47Q333.99 0.49 328.23 0.49ZM327.74-23.19L327.74-23.19Q325.06-23.19 323.76-21.35 322.47-19.51 322.3-15.63L322.3-15.63 332.7-15.63 332.7-16.21Q332.53-19.97 331.34-21.58 330.16-23.19 327.74-23.19ZM355.01-32.81L359.31-32.81 359.31-26.42 363.29-26.42 363.29-22.92 359.31-22.92 359.31-6.54Q359.31-4.98 359.82-4.17 360.33-3.37 361.58-3.37L361.58-3.37Q362.43-3.37 363.31-3.66L363.31-3.66 363.26 0Q361.8 0.49 360.26 0.49L360.26 0.49Q357.69 0.49 356.35-1.34 355.01-3.17 355.01-6.52L355.01-6.52 355.01-22.92 350.98-22.92 350.98-26.42 355.01-26.42 355.01-32.81ZM367.02-11.55L367.02-14.43Q367.02-20.19 369.81-23.55 372.61-26.9 377.2-26.9 381.79-26.9 384.58-23.63 387.38-20.36 387.45-14.72L387.45-14.72 387.45-11.94Q387.45-6.2 384.67-2.86 381.89 0.49 377.25 0.49L377.25 0.49Q372.66 0.49 369.89-2.76 367.12-6.01 367.02-11.55L367.02-11.55ZM371.34-14.45L371.34-11.94Q371.34-7.86 372.94-5.53 374.54-3.2 377.25-3.2L377.25-3.2Q382.96-3.2 383.13-11.45L383.13-11.45 383.13-14.43Q383.13-18.48 381.52-20.84 379.91-23.19 377.2-23.19L377.2-23.19Q374.54-23.19 372.94-20.84 371.34-18.48 371.34-14.45L371.34-14.45ZM392.16-11.47L392.16-14.4Q392.16-20.58 394.41-23.74 396.65-26.9 400.98-26.9L400.98-26.9Q405-26.9 407.1-23.46L407.1-23.46 407.32-26.42 411.23-26.42 411.23 0.24Q411.23 5.15 408.71 7.78 406.2 10.4 401.71 10.4L401.71 10.4Q399.75 10.4 397.33 9.44 394.9 8.47 393.68 7.06L393.68 7.06 395.43 4.08Q398.12 6.71 401.37 6.71L401.37 6.71Q406.76 6.71 406.91 0.83L406.91 0.83 406.91-2.61Q404.81 0.49 400.95 0.49L400.95 0.49Q396.85 0.49 394.55-2.6 392.26-5.69 392.16-11.47L392.16-11.47ZM396.48-14.58L396.48-11.94Q396.48-7.5 397.79-5.41 399.1-3.32 402.07-3.32L402.07-3.32Q405.3-3.32 406.91-6.62L406.91-6.62 406.91-19.82Q405.22-23.07 402.12-23.07L402.12-23.07Q399.14-23.07 397.83-20.98 396.51-18.9 396.48-14.58L396.48-14.58ZM427.1 0.49L427.1 0.49Q422.16 0.49 419.53-2.45 416.89-5.4 416.84-11.08L416.84-11.08 416.84-14.28Q416.84-20.19 419.42-23.55 421.99-26.9 426.61-26.9L426.61-26.9Q431.25-26.9 433.54-23.95 435.84-21 435.89-14.75L435.89-14.75 435.89-11.91 421.14-11.91 421.14-11.3Q421.14-7.06 422.74-5.13 424.34-3.2 427.34-3.2L427.34-3.2Q429.24-3.2 430.7-3.92 432.15-4.64 433.42-6.2L433.42-6.2 435.67-3.47Q432.86 0.49 427.1 0.49ZM426.61-23.19L426.61-23.19Q423.92-23.19 422.63-21.35 421.33-19.51 421.16-15.63L421.16-15.63 431.56-15.63 431.56-16.21Q431.39-19.97 430.21-21.58 429.02-23.19 426.61-23.19ZM442.43-32.81L446.72-32.81 446.72-26.42 450.7-26.42 450.7-22.92 446.72-22.92 446.72-6.54Q446.72-4.98 447.24-4.17 447.75-3.37 448.99-3.37L448.99-3.37Q449.85-3.37 450.73-3.66L450.73-3.66 450.68 0Q449.21 0.49 447.67 0.49L447.67 0.49Q445.11 0.49 443.77-1.34 442.43-3.17 442.43-6.52L442.43-6.52 442.43-22.92 438.4-22.92 438.4-26.42 442.43-26.42 442.43-32.81ZM460.15-37.5L460.15-23.71Q462.61-26.9 466.45-26.9L466.45-26.9Q473.45-26.9 473.55-17.55L473.55-17.55 473.55 0 469.25 0 469.25-17.36Q469.25-20.46 468.22-21.77 467.18-23.07 465.1-23.07L465.1-23.07Q463.49-23.07 462.21-22 460.93-20.92 460.15-19.19L460.15-19.19 460.15 0 455.83 0 455.83-37.5 460.15-37.5ZM489.42 0.49L489.42 0.49Q484.49 0.49 481.85-2.45 479.21-5.4 479.16-11.08L479.16-11.08 479.16-14.28Q479.16-20.19 481.74-23.55 484.32-26.9 488.93-26.9L488.93-26.9Q493.57-26.9 495.86-23.95 498.16-21 498.21-14.75L498.21-14.75 498.21-11.91 483.46-11.91 483.46-11.3Q483.46-7.06 485.06-5.13 486.66-3.2 489.66-3.2L489.66-3.2Q491.57-3.2 493.02-3.92 494.47-4.64 495.74-6.2L495.74-6.2 497.99-3.47Q495.18 0.49 489.42 0.49ZM488.93-23.19L488.93-23.19Q486.24-23.19 484.95-21.35 483.66-19.51 483.48-15.63L483.48-15.63 493.89-15.63 493.89-16.21Q493.71-19.97 492.53-21.58 491.35-23.19 488.93-23.19ZM514.27-26.56L514.29-22.36Q513.39-22.53 512.34-22.53L512.34-22.53Q509.02-22.53 507.7-18.9L507.7-18.9 507.7 0 503.38 0 503.38-26.42 507.58-26.42 507.65-23.73Q509.39-26.9 512.56-26.9L512.56-26.9Q513.58-26.9 514.27-26.56L514.27-26.56ZM523.81-35.55L523.47-10.03 519.59-10.03 519.27-35.55 523.81-35.55ZM521.64-4.86L521.64-4.86Q522.86-4.86 523.48-4.11 524.1-3.37 524.1-2.27 524.1-1.17 523.48-0.45 522.86 0.27 521.64 0.27L521.64 0.27Q520.39 0.27 519.78-0.45 519.17-1.17 519.17-2.27 519.17-3.37 519.78-4.11 520.39-4.86 521.64-4.86Z" opacity="1" transform="matrix(1,0,0,1,0,0)" fill="#ff2e63" class="slogan-text-1" data-fill-palette-color="secondary" id="text-1"></path></svg></g></svg></g></svg></g></svg></g><g transform="matrix(1,0,0,1,71.18251951068567,0)"><svg viewBox="0 0 102.06632097862864 102.06632097862864" height="102.06632097862864" width="102.06632097862864"><g><svg></svg></g><g id="icon-0"><svg viewBox="0 0 102.06632097862864 102.06632097862864" height="102.06632097862864" width="102.06632097862864"><g><path d="M0 51.033c0-28.185 22.848-51.033 51.033-51.033 28.185 0 51.033 22.848 51.033 51.033 0 28.185-22.848 51.033-51.033 51.033-28.185 0-51.033-22.848-51.033-51.033zM51.033 97.235c25.517 0 46.202-20.685 46.202-46.202 0-25.517-20.685-46.202-46.202-46.202-25.517 0-46.202 20.685-46.202 46.202 0 25.517 20.685 46.202 46.202 46.202z" data-fill-palette-color="accent" fill="#252a34" stroke="transparent"></path></g><g transform="matrix(1,0,0,1,24.53063496543213,23.603294648651588)"><svg viewBox="0 0 53.005051047764375 54.859731681325464" height="54.859731681325464" width="53.005051047764375"><g><svg xmlns="http://www.w3.org/2000/svg" xmlns:xlink="http://www.w3.org/1999/xlink" version="1.0" x="0" y="0" viewBox="1.165 -0.03300000000000025 96.683 100.066" enable-background="new 0 0 100 100" xml:space="preserve" width="53.005051047764375" height="54.859731681325464" class="icon-z$-0" data-fill-palette-color="accent" id="z$-0"><path enable-background="new    " d="M1.266 44.426v0.114 0.356 21.37V89.47c0 5.812 4.792 10.563 10.653 10.563h8.305 15.453V78.286c0-5.68 2.906-8.585 8.717-8.585h10.301c5.678 0 8.585 2.905 8.585 8.585v21.746h15.608 8.307c5.859 0 10.653-4.753 10.653-10.563V66.264 44.896 44.54v-0.114c0-3.681 0-2.824 0-2.824V35.62c0-3.895-1.655-7.208-4.965-9.934L58.077 2.304c-3.929-3.116-13.114-3.116-17.043 0L6.23 25.686c-3.308 2.725-4.964 6.039-4.964 9.934l-0.101 7.164" fill="#252a34" data-fill-palette-color="accent"></path></svg></g></svg></g></svg></g></svg></g><g></g></svg></g></svg></g><g><path d="M184.411 38.279A86.359 86.359 0 0 1 211.109 38.279L207.696 38.279A82.945 82.945 0 0 0 187.824 38.279L184.411 38.279M184.411 208.921A86.359 86.359 0 0 0 211.109 208.921L207.696 208.921A82.945 82.945 0 0 1 187.824 208.921L184.411 208.921" fill="#ff2e63" stroke="transparent" data-fill-palette-color="tertiary"></path></g></svg></g><defs></defs></svg><rect width="395.52" height="247.2" fill="none" stroke="none" visibility="hidden"></rect></g></svg></g></svg>